<?xml version="1.0" encoding="iso-8859-1"?>
<!-- Generator: Adobe Illustrator 19.0.0, SVG Export Plug-In . SVG Version: 6.00 Build 0)  -->
<svg version="1.1" id="Layer_1" xmlns="http://www.w3.org/2000/svg" xmlns:xlink="http://www.w3.org/1999/xlink" x="0px" y="0px"
	 viewBox="0 0 512 512" style="enable-background:new 0 0 512 512;" xml:space="preserve">
<path style="fill:#BBE095;" d="M486.935,146.104l-7.905,7.905l-144.751,23.714L394.063,70.51l92.873-45.444
	C520.355,58.487,520.355,112.682,486.935,146.104z"/>
<path style="fill:#E0F4B4;" d="M486.935,25.065L334.278,177.722l23.714-144.751l7.905-7.905
	C399.318-8.355,453.513-8.355,486.935,25.065z"/>
<polygon style="fill:#5EDAFF;" points="357.992,154.008 203.478,308.522 243.002,147.96 357.992,32.97 "/>
<polygon style="fill:#089AC6;" points="243.002,268.997 104.298,407.701 128.013,262.951 243.002,147.96 "/>
<path style="fill:#4B58E3;" d="M128.013,383.987l-68.32,68.32c0-80.897-8.157-112.88,25.224-146.261l43.096-43.096
	C128.013,262.951,128.013,383.987,128.013,383.987z"/>
<polygon style="fill:#089AC6;" points="479.029,154.008 364.04,268.997 203.478,308.522 357.992,154.008 "/>
<polygon style="fill:#4B58E3;" points="364.04,268.997 249.049,383.987 104.298,407.701 243.002,268.997 "/>
<g>
	<path style="fill:#693F9E;" d="M249.049,383.987l-43.096,43.096c-33.382,33.382-65.365,25.224-146.261,25.224l68.32-68.32H249.049z
		"/>
	<path style="fill:#693F9E;" d="M2.619,509.381c-3.492-3.492-3.492-9.154,0-12.648L456.897,42.457c3.492-3.492,9.156-3.492,12.648,0
		c3.492,3.492,3.492,9.154,0,12.648L15.267,509.381C11.774,512.873,6.112,512.873,2.619,509.381z"/>
</g>
<g>
</g>
<g>
</g>
<g>
</g>
<g>
</g>
<g>
</g>
<g>
</g>
<g>
</g>
<g>
</g>
<g>
</g>
<g>
</g>
<g>
</g>
<g>
</g>
<g>
</g>
<g>
</g>
<g>
</g>
</svg>
