<?xml version="1.0" encoding="iso-8859-1"?>
<!-- Generator: Adobe Illustrator 19.0.0, SVG Export Plug-In . SVG Version: 6.00 Build 0)  -->
<svg version="1.1" id="Layer_1" xmlns="http://www.w3.org/2000/svg" xmlns:xlink="http://www.w3.org/1999/xlink" x="0px" y="0px"
	 viewBox="0 0 512.001 512.001" style="enable-background:new 0 0 512.001 512.001;" xml:space="preserve">
<path style="fill:#FF7226;" d="M235.292,428.727c-22.298-22.298-58.581-22.299-80.879,0l-7.703,7.703
	c-7.716,7.716-17.974,11.965-28.885,11.965c-10.912,0-21.17-4.25-28.885-11.964c-15.927-15.928-15.927-41.844,0-57.771
	l57.771-57.771l-11.555-11.555l-57.771,57.771c-22.297,22.298-22.298,58.581,0,80.88c10.802,10.802,25.164,16.751,40.44,16.751
	s29.638-5.949,40.44-16.751l7.703-7.703c15.927-15.927,41.843-15.927,57.77,0c15.927,15.927,15.927,41.843,0,57.771
	c-3.191,3.191-3.191,8.364,0,11.555c3.191,3.191,8.364,3.191,11.555,0C257.59,487.309,257.59,451.026,235.292,428.727z"/>
<g>
	<path style="fill:#FF9E46;" d="M372.994,83.045c3.191,3.191,8.364,3.191,11.555,0l30.81-30.811c3.191-3.191,3.191-8.364,0-11.555
		c-3.191-3.191-8.364-3.191-11.555,0l-30.81,30.811C369.803,74.682,369.803,79.855,372.994,83.045z"/>
	<path style="fill:#FF9E46;" d="M293.063,347.847L108.197,162.978c-3.191-3.191-8.363-3.191-11.555,0
		c-3.192,3.191-3.191,8.364,0,11.555l184.867,184.868c3.191,3.191,8.363,3.191,11.555,0
		C296.254,356.21,296.254,351.038,293.063,347.847z"/>
	<path style="fill:#FF9E46;" d="M203.023,354.719c0-4.511-3.658-8.169-8.17-8.17c-4.513,0-8.17,3.658-8.171,8.171v37.193
		c0,2.256,0.915,4.299,2.393,5.777c1.478,1.478,3.521,2.393,5.777,2.393c4.513,0,8.17-3.658,8.171-8.171V354.719z"/>
	<path style="fill:#FF9E46;" d="M101.325,253.02H64.132c-4.513,0-8.17,3.658-8.171,8.171c0,2.256,0.915,4.299,2.393,5.777
		c1.478,1.478,3.521,2.393,5.777,2.393h37.193c4.513,0,8.17-3.658,8.171-8.171C109.495,256.679,105.837,253.021,101.325,253.02z"/>
	<path style="fill:#FF9E46;" d="M157.79,113.384l184.866,184.869c3.191,3.191,8.363,3.191,11.555,0
		c3.191-3.191,3.191-8.364,0-11.555L169.345,101.83c-3.191-3.191-8.363-3.191-11.555,0C154.601,105.02,154.6,110.193,157.79,113.384
		z"/>
	<path style="fill:#FF9E46;" d="M308.979,45.363c0,2.256,0.915,4.299,2.393,5.777s3.521,2.393,5.777,2.393
		c4.513,0,8.17-3.658,8.171-8.171V8.17c-0.001-4.511-3.659-8.169-8.17-8.17c-4.513,0-8.17,3.658-8.171,8.171V45.363z"/>
	<path style="fill:#FF9E46;" d="M404.9,144.669c1.478,1.478,3.521,2.393,5.777,2.393h37.191c4.513,0,8.17-3.658,8.171-8.171
		c-0.001-4.511-3.659-8.169-8.17-8.17h-37.191c-4.513,0-8.17,3.658-8.171,8.171C402.507,141.148,403.421,143.19,404.9,144.669z"/>
	<path style="fill:#FF9E46;" d="M218.939,52.234l184.866,184.869c3.191,3.191,8.363,3.191,11.555,0
		c3.191-3.191,3.191-8.364,0-11.555L230.493,40.681c-3.191-3.191-8.363-3.191-11.555,0C215.749,43.87,215.749,49.044,218.939,52.234
		z"/>
</g>
<path style="fill:#FFD15D;" d="M117.825,184.162L240.122,61.863c42.541-42.541,111.514-42.541,154.054,0
	c42.541,42.541,42.541,111.515,0,154.057L271.88,338.219c-42.541,42.541-111.514,42.541-154.054,0
	C75.284,295.677,75.284,226.703,117.825,184.162z"/>
<path style="fill:#F56E92;" d="M371.069,84.971c-29.73-29.732-78.107-29.732-107.839,0l-23.108,23.108l-99.188,99.189
	c-29.732,29.732-29.73,78.108,0,107.84s78.107,29.732,107.839,0L371.069,192.81C400.8,163.08,400.8,114.703,371.069,84.971z"/>
<g>
	<circle style="fill:#F23E6D;" cx="332.556" cy="162.77" r="8.17"/>
	<circle style="fill:#F23E6D;" cx="332.556" cy="116.549" r="8.17"/>
	<circle style="fill:#F23E6D;" cx="179.449" cy="237.314" r="8.17"/>
</g>
<path style="fill:#BD0D38;" d="M219.469,237.04c-2.09,0-4.182-0.797-5.778-2.393c-3.191-3.191-3.19-8.364,0-11.554
	c6.379-6.378,13.107-6.576,17.558-6.708c3.644-0.108,4.77-0.215,6.487-1.929c1.715-1.715,1.821-2.841,1.929-6.485
	c0.131-4.452,0.329-11.181,6.709-17.559c6.378-6.378,13.106-6.576,17.557-6.707c3.643-0.108,4.769-0.215,6.484-1.929
	c1.715-1.715,1.821-2.841,1.929-6.484c0.131-4.451,0.328-11.179,6.707-17.557c3.192-3.192,8.363-3.191,11.555-0.001
	c3.191,3.191,3.191,8.364,0,11.554c-1.715,1.715-1.821,2.841-1.929,6.484c-0.131,4.452-0.328,11.18-6.707,17.558
	c-6.378,6.378-13.106,6.576-17.558,6.707c-3.643,0.108-4.769,0.215-6.484,1.929c-1.716,1.716-1.824,2.842-1.93,6.486
	c-0.131,4.452-0.329,11.18-6.708,17.558c-6.38,6.379-13.107,6.577-17.559,6.709c-3.644,0.108-4.77,0.215-6.486,1.929
	C223.651,236.241,221.56,237.04,219.469,237.04z"/>
<g>
</g>
<g>
</g>
<g>
</g>
<g>
</g>
<g>
</g>
<g>
</g>
<g>
</g>
<g>
</g>
<g>
</g>
<g>
</g>
<g>
</g>
<g>
</g>
<g>
</g>
<g>
</g>
<g>
</g>
</svg>
