<?xml version="1.0" encoding="iso-8859-1"?>
<!-- Generator: Adobe Illustrator 19.0.0, SVG Export Plug-In . SVG Version: 6.00 Build 0)  -->
<svg version="1.1" id="Layer_1" xmlns="http://www.w3.org/2000/svg" xmlns:xlink="http://www.w3.org/1999/xlink" x="0px" y="0px"
	 viewBox="0 0 512 512" style="enable-background:new 0 0 512 512;" xml:space="preserve">
<path style="fill:#FCD999;" d="M378.203,260.162L378.203,260.162L250.74,132.725v-0.001c-17.489-5.419-36.035-8.434-55.258-8.635
	v386.822c105.882-1.104,191.363-87.268,191.363-193.411C386.844,297.536,383.818,278.28,378.203,260.162z"/>
<path style="fill:#FEECCC;" d="M195.482,124.089c-0.683-0.011-1.377-0.011-2.059-0.011C86.596,124.078,0,210.674,0,317.5
	C0,376.595,26.5,429.5,68.266,464.979l70.896,38.23c17.215,5.021,35.424,7.714,54.261,7.714c0.683,0,1.377,0,2.059-0.011
	c87.029-1.343,157.23-87.415,157.23-193.411S282.51,125.432,195.482,124.089z"/>
<path style="fill:#FCD999;" d="M250.74,132.725c-42.26,12.611-73.074,51.769-73.074,98.131c0,56.554,45.847,102.4,102.4,102.4
	c46.369,0,85.531-30.822,98.137-73.094C359.385,199.443,311.461,151.538,250.74,132.725z"/>
<path style="fill:#FBC566;" d="M114.369,419.911l14.302,79.906c3.447,1.229,6.952,2.355,10.49,3.391
	c12.14-8.181,20.127-22.062,20.127-37.797C159.289,440.471,139.23,420.218,114.369,419.911z"/>
<g>
	<path style="fill:#FCD999;" d="M136.533,465.411c0,13.733-3.049,26.066-7.862,34.406c-22.3-7.919-42.724-19.82-60.405-34.839
		c0.25-24.951,20.526-45.079,45.511-45.079c0.193,0,0.387,0,0.592,0.011C126.669,420.537,136.533,440.676,136.533,465.411z"/>
	<circle style="fill:#FCD999;" cx="73.956" cy="283.363" r="17.067"/>
</g>
<path style="fill:#FBC566;" d="M226.759,373.251v68.267c18.842,0,34.133-15.28,34.133-34.133
	C260.892,388.531,245.601,373.251,226.759,373.251z"/>
<path style="fill:#FCD999;" d="M226.759,373.251c6.281,0,11.378,15.28,11.378,34.133c0,18.853-5.097,34.133-11.378,34.133
	c-18.853,0-34.133-15.28-34.133-34.133C192.626,388.531,207.906,373.251,226.759,373.251z"/>
<g>
	<circle style="fill:#F9B233;" cx="412.809" cy="33.746" r="8.533"/>
	<circle style="fill:#F9B233;" cx="436.952" cy="9.61" r="8.533"/>
	<path style="fill:#F9B233;" d="M404.769,138.335c-8.886,8.886-23.295,8.886-32.181,0c-8.886-8.886-8.886-23.295,0-32.181
		l16.09-16.09c8.886-8.886,8.886-23.295,0-32.181s-23.295-8.886-32.181,0l-60.34,60.34l-39.261,89.465l55.352,55.352
		L404.769,138.335z"/>
</g>
<path style="fill:#FA9647;" d="M505.335,69.95c-8.886-8.886-23.295-8.886-32.181,0L296.157,246.946l96.544-32.181l112.634-112.634
	C514.222,93.244,514.222,78.836,505.335,69.95z"/>
<path style="fill:#FD5F6E;" d="M360.52,214.765v-32.181l-128.725,96.544c26.66,26.66,69.883,26.659,96.544,0l64.363-64.363H360.52z"
	/>
<path style="fill:#FA9647;" d="M328.339,182.584v-32.182h-32.181v-32.181l-64.363,64.363c-26.659,26.659-26.659,69.883,0,96.544
	c8.886,8.886,37.703-5.522,64.363-32.181l64.363-64.363H328.339z"/>
<path style="fill:#FEECCC;" d="M280.066,196.722l-11.378,34.133l11.378,34.133c18.852,0,34.133-15.282,34.133-34.133
	S298.918,196.722,280.066,196.722z"/>
<path style="fill:#FFFFFF;" d="M245.933,230.856c0,18.852,15.283,34.133,34.133,34.133v-68.267
	C261.216,196.722,245.933,212.004,245.933,230.856z"/>
<g>
	<circle style="fill:#FCD999;" cx="108.089" cy="232.163" r="8.533"/>
	<circle style="fill:#FCD999;" cx="295.026" cy="407.381" r="8.533"/>
</g>
<g>
</g>
<g>
</g>
<g>
</g>
<g>
</g>
<g>
</g>
<g>
</g>
<g>
</g>
<g>
</g>
<g>
</g>
<g>
</g>
<g>
</g>
<g>
</g>
<g>
</g>
<g>
</g>
<g>
</g>
</svg>
