<?xml version="1.0" encoding="iso-8859-1"?>
<!-- Generator: Adobe Illustrator 19.0.0, SVG Export Plug-In . SVG Version: 6.00 Build 0)  -->
<svg version="1.1" id="Layer_1" xmlns="http://www.w3.org/2000/svg" xmlns:xlink="http://www.w3.org/1999/xlink" x="0px" y="0px"
	 viewBox="0 0 512 512" style="enable-background:new 0 0 512 512;" xml:space="preserve">
<path style="fill:#F74D37;" d="M355.501,245.374L213.124,387.75c-24.541,24.542-64.333,24.542-88.874,0s-24.542-64.332,0-88.874
	l142.376-142.376l-72.064-72.064L48.257,230.741c-64.342,64.342-64.342,168.661,0,233.002s168.661,64.342,233.002,0l146.306-146.306
	L355.501,245.374z"/>
<path style="fill:#C43D2C;" d="M48.256,463.744l75.994-75.994c24.541,24.542,64.333,24.542,88.874,0L355.5,245.374l72.064,72.064
	L281.259,463.743C216.916,528.086,112.598,528.086,48.256,463.744z"/>
<g>
	
		<rect x="276.246" y="33.588" transform="matrix(-0.7071 -0.7071 0.7071 -0.7071 447.431 311.1306)" style="fill:#F9D026;" width="23.813" height="58.623"/>
	<rect x="230.5" style="fill:#F9D026;" width="23.815" height="58.624"/>
	<rect x="292.441" y="96.746" style="fill:#F9D026;" width="58.624" height="23.815"/>
</g>
<g>
	
		<rect x="437.184" y="194.529" transform="matrix(-0.7071 -0.7071 0.7071 -0.7071 608.3666 699.6761)" style="fill:#E7C224;" width="23.813" height="58.623"/>
	<rect x="391.446" y="160.935" style="fill:#E7C224;" width="23.815" height="58.624"/>
	<rect x="453.376" y="257.681" style="fill:#E7C224;" width="58.624" height="23.815"/>
</g>
<rect x="314.661" y="270.675" transform="matrix(-0.7071 -0.7071 0.7071 -0.7071 406.8443 783.1379)" style="fill:#B7B9C0;" width="101.909" height="73.266"/>
<rect x="153.734" y="109.741" transform="matrix(0.7071 0.7071 -0.7071 0.7071 163.4544 -101.8644)" style="fill:#D8D9DD;" width="101.909" height="73.266"/>
<g>
</g>
<g>
</g>
<g>
</g>
<g>
</g>
<g>
</g>
<g>
</g>
<g>
</g>
<g>
</g>
<g>
</g>
<g>
</g>
<g>
</g>
<g>
</g>
<g>
</g>
<g>
</g>
<g>
</g>
</svg>
