<svg width="400" height="250" xmlns="http://www.w3.org/2000/svg"><path fill="#f3f3f3" d="M-1-1h402v252H-1z"/><path fill="#444" d="M279.3 75c-15.166 0-35.732.175-49.3 5-30.427 11.035-29.2 11.17-60 0-13.54-4.825-33.847-5-49-5-26.27 0-45.864.456-71 7v8c10.495 2.457 9.2 20.827 11 32.37C67.272 153.136 72.907 178 123.726 178c40.463 0 54.33-41.198 63.274-69 4.28-15.875 22.56-16.035 26.422 0 8.982 27.842 22.417 69 62.986 69 50.82 0 55.723-23.968 62.592-55.645 1.8-11.54-.302-28.943 11-32.355v-8c-25.136-5.798-44.43-7-70.7-7zM179 120c-9.15 28.476-19.698 51.755-55 56-43.995 0-56.988-22.083-61-63-.973-9.955.28-20.934 2-23 12.635-15.114 87.903-15.274 110-2 6.344 3.798 8.664 12.37 4 32zm158.2-7.516C333.178 153.4 320.39 176 276.41 176c-35.05-3.745-46.27-29.272-55.408-56-4.678-19.63-3.344-28.202 3-32 22.178-13.328 95.418-13.06 108 2 1.706 2.08 6.174 12.542 5.2 22.484l-3.562-5.216z"/><text font-family="Helvetica, Arial, sans-serif" font-size="72" y="150.889" x="95.748" fill="#444" fill-opacity="null" stroke-opacity="null" stroke="null">U</text><text font-family="Helvetica, Arial, sans-serif" font-size="72" y="149.891" x="257.364" fill="#444" fill-opacity="null" stroke-opacity="null" stroke="null">X</text></svg>
