<svg width="400" height="250" xmlns="http://www.w3.org/2000/svg"><path fill="#f3f3f3" d="M-1-1h402v252H-1z"/><ellipse ry="98.9938" rx="98.9938" cy="115.9506" cx="200" stroke-opacity="null" stroke-width="null" stroke="#444" fill="none"/><ellipse ry="36.4977" rx="36.4977" cy="86.4524" cx="201.9999" stroke-opacity="null" stroke-width="null" stroke="#444" fill="none"/><path d="M134.504 189.329c0-26.922 29.863-47.98 65.496-47.98 35.633 0 64.496 21.807 64.496 48.73S235.633 238.81 200 238.81c-17.817 0-34.94-6.202-46.61-15.019-11.67-8.818-18.886-21-18.886-34.462zM95 125h15m195 0h-15M200 10v15m0 180v15" stroke-opacity="null" stroke-linecap="null" stroke-linejoin="null" stroke-width="null" stroke="#444" fill="none"/><path d="M133.35 190.8394c.125.125.375.125.875.5l.375.375.125.1248.2498.125" fill="none"/><path fill-opacity="null" stroke-opacity="null" stroke-width="null" stroke="null" fill="#f3f3f3" d="M136.46 220.8338h139.099v21.371H136.46z"/><path fill-opacity="null" stroke-opacity="null" stroke-width="null" stroke="null" fill="#f3f3f3" d="M134.8353 208.961h17.8717v13.9974h-17.8717zm112.979-4.3742h19.9962v18.2466h-19.9963z"/><path fill-opacity="null" stroke-opacity="null" stroke-width="null" stroke="null" fill="#f3f3f3" d="M260.5618 197.713h10.123v9.1234h-10.123zm-130.4756 1.4998h11.123v13.2475h-11.123z"/><path fill-opacity="null" stroke-opacity="null" stroke-width="null" stroke="null" fill="#f3f3f3" d="M131.086 195.4635h6.3738v6.4988h-6.3738zm136.9055-6.5268l2.4598 3.1534-5.3212 4.151-2.4595-3.1532z"/><path fill-opacity="null" stroke-opacity="null" stroke-width="null" stroke="null" fill="#f3f3f3" d="M132.7577 189.3033l3.361 2.7995-4.0794 4.8974-3.361-2.7996z"/><path fill-opacity="null" stroke-opacity="null" stroke-width="null" stroke="null" fill="#f3f3f3" d="M130.336 192.964h5.374v5.999h-5.374zm132.8503 1.2498h4.2492v6.3738h-4.2492z"/></svg>
